STARTFONT 2.3
FONT -FontForge-Tangerine-Book-R-Normal--16-160-72-72-P-60-ISO10646-1
SIZE 16 72 72  4
FONTBOUNDINGBOX 28 18 -6 -5
COMMENT "Generated by fontforge, http://fontforge.sourceforge.net"
COMMENT "Copyright (c) 2010 by Toshi Omagari. All rights reserved."
STARTPROPERTIES 40
FOUNDRY "FontForge"
FAMILY_NAME "Tangerine"
WEIGHT_NAME "Book"
SLANT "R"
SETWIDTH_NAME "Normal"
ADD_STYLE_NAME ""
PIXEL_SIZE 16
POINT_SIZE 160
RESOLUTION_X 72
RESOLUTION_Y 72
SPACING "P"
AVERAGE_WIDTH 60
CHARSET_REGISTRY "ISO10646"
CHARSET_ENCODING "1"
FONTNAME_REGISTRY ""
CHARSET_COLLECTIONS "ISO10646-1"
BITS_PER_PIXEL 4
FONT_NAME "Tangerine-Regular"
FACE_NAME "Tangerine Regular"
COPYRIGHT "Copyright (c) 2010 by Toshi Omagari. All rights reserved."
FONT_VERSION "1.3"
FONT_ASCENT 12
FONT_DESCENT 4
UNDERLINE_POSITION -2
UNDERLINE_THICKNESS 1
X_HEIGHT 3
CAP_HEIGHT 9
RAW_ASCENT 750
RAW_DESCENT 250
NORM_SPACE 2
RELATIVE_WEIGHT 40
RELATIVE_SETWIDTH 50
SUPERSCRIPT_X 0
SUPERSCRIPT_Y 7
SUPERSCRIPT_SIZE 10
SUBSCRIPT_X 0
SUBSCRIPT_Y 2
SUBSCRIPT_SIZE 10
AVG_LOWERCASE_WIDTH 39
AVG_UPPERCASE_WIDTH 113
ENDPROPERTIES
CHARS 233
STARTCHAR space
ENCODING 32
SWIDTH 150 0
DWIDTH 2 0
BBX 1 1 0 0
BITMAP
00
ENDCHAR
STARTCHAR exclam
ENCODING 33
SWIDTH 189 0
DWIDTH 3 0
BBX 5 9 0 0
BITMAP
000040
0002A0
000730
000800
002400
005000
004000
000000
180000
ENDCHAR
STARTCHAR quotedbl
ENCODING 34
SWIDTH 214 0
DWIDTH 3 0
BBX 5 3 0 4
BITMAP
014410
063700
123000
ENDCHAR
STARTCHAR numbersign
ENCODING 35
SWIDTH 289 0
DWIDTH 5 0
BBX 5 5 0 0
BITMAP
006230
19FFB0
061400
4EC500
321000
ENDCHAR
STARTCHAR dollar
ENCODING 36
SWIDTH 269 0
DWIDTH 4 0
BBX 5 7 0 -1
BITMAP
000400
027910
056100
00C100
337500
770100
120000
ENDCHAR
STARTCHAR percent
ENCODING 37
SWIDTH 388 0
DWIDTH 6 0
BBX 6 7 0 -1
BITMAP
000015
159060
505420
764559
005605
051762
330000
ENDCHAR
STARTCHAR ampersand
ENCODING 38
SWIDTH 507 0
DWIDTH 8 0
BBX 8 8 0 0
BITMAP
001B9000
00627000
00603000
00820000
07640167
71090300
91058000
3A646973
ENDCHAR
STARTCHAR quotesingle
ENCODING 39
SWIDTH 120 0
DWIDTH 2 0
BBX 2 2 1 4
BITMAP
46
60
ENDCHAR
STARTCHAR parenleft
ENCODING 40
SWIDTH 250 0
DWIDTH 4 0
BBX 5 13 1 -2
BITMAP
000010
000500
006100
017000
081000
090000
270000
540000
720000
710000
600000
420000
020000
ENDCHAR
STARTCHAR parenright
ENCODING 41
SWIDTH 276 0
DWIDTH 4 0
BBX 5 13 0 -2
BITMAP
000100
000500
000510
000430
000530
000720
000900
000A00
003700
008100
016000
070000
210000
ENDCHAR
STARTCHAR asterisk
ENCODING 42
SWIDTH 188 0
DWIDTH 3 0
BBX 4 4 0 3
BITMAP
0150
27C4
0550
1120
ENDCHAR
STARTCHAR plus
ENCODING 43
SWIDTH 301 0
DWIDTH 5 0
BBX 5 5 0 0
BITMAP
001200
006100
1EFF40
006000
012000
ENDCHAR
STARTCHAR comma
ENCODING 44
SWIDTH 112 0
DWIDTH 2 0
BBX 2 2 0 -1
BITMAP
35
40
ENDCHAR
STARTCHAR hyphen
ENCODING 45
SWIDTH 245 0
DWIDTH 4 0
BBX 4 1 0 2
BITMAP
3CE7
ENDCHAR
STARTCHAR period
ENCODING 46
SWIDTH 112 0
DWIDTH 2 0
BBX 2 1 0 0
BITMAP
53
ENDCHAR
STARTCHAR slash
ENCODING 47
SWIDTH 210 0
DWIDTH 3 0
BBX 7 11 -1 -1
BITMAP
00000050
00000320
00000500
00004100
00014000
00050000
00230000
00500000
03200000
05000000
31000000
ENDCHAR
STARTCHAR zero
ENCODING 48
SWIDTH 349 0
DWIDTH 6 0
BBX 6 5 0 0
BITMAP
0047A1
040045
060043
180050
098510
ENDCHAR
STARTCHAR one
ENCODING 49
SWIDTH 189 0
DWIDTH 3 0
BBX 4 5 0 0
BITMAP
0CE7
00A0
0540
0A00
3700
ENDCHAR
STARTCHAR two
ENCODING 50
SWIDTH 277 0
DWIDTH 4 0
BBX 5 5 0 0
BITMAP
026B20
030540
001700
024000
598600
ENDCHAR
STARTCHAR three
ENCODING 51
SWIDTH 253 0
DWIDTH 4 0
BBX 6 8 -1 -3
BITMAP
0035A0
0000A1
004A60
011320
000090
000380
513B10
8EA200
ENDCHAR
STARTCHAR four
ENCODING 52
SWIDTH 363 0
DWIDTH 6 0
BBX 8 9 0 0
BITMAP
00000012
00000480
00004910
00042600
01408000
07218310
25AEE700
00091000
00190000
ENDCHAR
STARTCHAR five
ENCODING 53
SWIDTH 250 0
DWIDTH 4 0
BBX 7 9 -2 -3
BITMAP
00000020
00018840
00040000
000B8000
0001C200
00005400
00007200
14047000
0BE70000
ENDCHAR
STARTCHAR six
ENCODING 54
SWIDTH 296 0
DWIDTH 5 0
BBX 7 8 0 0
BITMAP
00019E90
001A3150
00910000
06541000
0A038000
17018000
37042000
0B630000
ENDCHAR
STARTCHAR seven
ENCODING 55
SWIDTH 326 0
DWIDTH 5 0
BBX 6 8 0 -3
BITMAP
04EFD9
051023
010040
000500
005200
044000
370000
900000
ENDCHAR
STARTCHAR eight
ENCODING 56
SWIDTH 305 0
DWIDTH 5 0
BBX 6 8 0 0
BITMAP
000472
006119
008215
002C40
044490
2600A0
560060
1A7510
ENDCHAR
STARTCHAR nine
ENCODING 57
SWIDTH 304 0
DWIDTH 5 0
BBX 6 8 -1 -3
BITMAP
000266
00400A
01601A
0491A7
01DEA2
000170
213910
5EA100
ENDCHAR
STARTCHAR colon
ENCODING 58
SWIDTH 156 0
DWIDTH 3 0
BBX 3 4 0 0
BITMAP
0710
0000
0000
7200
ENDCHAR
STARTCHAR semicolon
ENCODING 59
SWIDTH 156 0
DWIDTH 3 0
BBX 3 6 0 -2
BITMAP
0710
0000
0000
5400
5000
1000
ENDCHAR
STARTCHAR less
ENCODING 60
SWIDTH 301 0
DWIDTH 5 0
BBX 5 5 0 0
BITMAP
000120
005610
1B2000
05D400
003B00
ENDCHAR
STARTCHAR equal
ENCODING 61
SWIDTH 301 0
DWIDTH 5 0
BBX 5 4 0 0
BITMAP
0DFF70
000000
000000
4FFF10
ENDCHAR
STARTCHAR greater
ENCODING 62
SWIDTH 301 0
DWIDTH 5 0
BBX 5 4 0 1
BITMAP
020000
03A400
000920
110000
ENDCHAR
STARTCHAR question
ENCODING 63
SWIDTH 285 0
DWIDTH 5 0
BBX 7 9 0 0
BITMAP
00038600
00320A10
00000700
00002600
00044000
00610000
02800000
00000000
18000000
ENDCHAR
STARTCHAR at
ENCODING 64
SWIDTH 492 0
DWIDTH 8 0
BBX 8 8 0 -2
BITMAP
003BEC30
03A31390
08047733
16325232
3573B180
176A9E30
08401230
00686300
ENDCHAR
STARTCHAR A
ENCODING 65
SWIDTH 996 0
DWIDTH 16 0
BBX 16 10 0 0
BITMAP
0000000024577873
000000012000001B
00000002000011A2
0000000000012190
0000000000230640
00000000BFFFEE00
0200000004200800
1400000051000900
2900004500000B02
08C98720000008A2
ENDCHAR
STARTCHAR B
ENCODING 66
SWIDTH 638 0
DWIDTH 10 0
BBX 11 11 0 0
BITMAP
000000002000
000024655500
000210500740
000105200560
000007012910
00001707B100
000052003900
000060000B00
220410000A00
2A9100002800
004764446000
ENDCHAR
STARTCHAR C
ENCODING 67
SWIDTH 557 0
DWIDTH 9 0
BBX 9 10 1 0
BITMAP
0003345790
0051000050
0700000000
4500000000
9100000000
C000000000
D100000000
A400000300
2B10002400
0285458000
ENDCHAR
STARTCHAR D
ENCODING 68
SWIDTH 799 0
DWIDTH 13 0
BBX 13 11 0 0
BITMAP
00000000001000
00025589862000
00130000674000
00200006107300
00000008000A00
00000044000560
00000080000190
00000160000090
00000610000160
04677400000610
65334787764100
ENDCHAR
STARTCHAR E
ENCODING 69
SWIDTH 494 0
DWIDTH 8 0
BBX 8 10 1 0
BITMAP
00022466
00250003
004B2000
000AC000
04410000
53000000
B0000000
C0000030
B2000340
29544600
ENDCHAR
STARTCHAR F
ENCODING 70
SWIDTH 626 0
DWIDTH 10 0
BBX 14 10 0 0
BITMAP
000002568ADFF4
00002200036120
00002000090000
00000000370000
00000000720000
000008FFFE8000
00000000800000
04000006100000
27000033000000
08865310000000
ENDCHAR
STARTCHAR G
ENCODING 71
SWIDTH 571 0
DWIDTH 9 0
BBX 13 13 -1 -3
BITMAP
000000018DE900
0000003A511A10
00000280000500
00000900000100
00005500000000
00009100000000
0000B000040000
0000A200390000
03002621730000
44000000900000
82000006200000
56000043000000
07644420000000
ENDCHAR
STARTCHAR H
ENCODING 72
SWIDTH 865 0
DWIDTH 14 0
BBX 19 11 0 0
BITMAP
00000000000000004820
00000466791000043140
00003100520000400000
00003001800005100000
00000006400016000000
0000000A000071000000
0028CEFB676390000000
05C520330028E2000000
1A000030000730000000
25000000000A01000000
05023100000971000000
ENDCHAR
STARTCHAR I
ENCODING 73
SWIDTH 554 0
DWIDTH 9 0
BBX 12 10 0 0
BITMAP
000000001396
000000032540
000000310A00
000000302700
000003007200
000003008000
031000034000
170000291000
1C2026900000
06EEB5000000
ENDCHAR
STARTCHAR J
ENCODING 74
SWIDTH 634 0
DWIDTH 10 0
BBX 14 13 0 -3
BITMAP
00000000003691
00000000131800
00000001207200
00000003009000
00000003018000
00000003063000
00021002080000
01310000370000
13000000900000
60000007300000
90000066000000
B4014A50000000
3DFD8200000000
ENDCHAR
STARTCHAR K
ENCODING 75
SWIDTH 936 0
DWIDTH 15 0
BBX 16 10 0 0
BITMAP
000002678970047A
0000230006015102
0000300045140000
0000300081400000
00002000A7000000
0000000196300000
0310000442800000
1600000600910000
2800004100390000
088654000005A730
ENDCHAR
STARTCHAR L
ENCODING 76
SWIDTH 657 0
DWIDTH 11 0
BBX 12 10 0 0
BITMAP
000000003CE4
000000047128
000000180003
000000630000
000000900000
000002700000
000008200000
068528000010
677BF7311510
474327DFC300
ENDCHAR
STARTCHAR M
ENCODING 77
SWIDTH 1219 0
DWIDTH 20 0
BBX 21 10 0 0
BITMAP
0000000356789730000550
00000022000004A0004800
000000300000092000B000
0000000000003900155000
00000000000255010A0000
0410000000229110190000
170000000220A110460000
2800000032019100550000
0C20001520048000560200
03B98750000530001C6000
ENDCHAR
STARTCHAR N
ENCODING 78
SWIDTH 990 0
DWIDTH 16 0
BBX 21 10 0 0
BITMAP
0000036896300000018B30
0000020005A00000061020
0000000002370000410000
0000000004035000400000
0000000004008103000000
0200000012002603000000
0500000040000903000000
2500000310000560000000
1B100052000001B0000000
03BB971000000060000000
ENDCHAR
STARTCHAR O
ENCODING 79
SWIDTH 606 0
DWIDTH 10 0
BBX 10 10 1 0
BITMAP
0004BEEA10
00872029C0
06200000A3
2500000056
7000000045
9000000062
B000000080
A500000720
4E62039400
04CFD91000
ENDCHAR
STARTCHAR P
ENCODING 80
SWIDTH 783 0
DWIDTH 13 0
BBX 14 11 0 0
BITMAP
00000000000200
00000004567450
00000032040046
0000021006000A
0000030033000B
00000000600029
00000003810391
03000003466400
24000004000000
26000030000000
06864300000000
ENDCHAR
STARTCHAR Q
ENCODING 81
SWIDTH 563 0
DWIDTH 9 0
BBX 11 14 1 -3
BITMAP
0004AB700000
006721320000
012000024000
02000000A000
24000001B000
540000059000
4700000B4000
0972007A0000
000007C10000
2115B8000000
5AD610000000
003850000000
00006C720170
0000018EFB20
ENDCHAR
STARTCHAR R
ENCODING 82
SWIDTH 854 0
DWIDTH 14 0
BBX 14 11 0 0
BITMAP
00000000002100
00000013473620
00000220240090
00000200800090
00000000800080
00000004534610
000000081B1000
030000160A0000
13000050064000
2500032001A000
08875100004A72
ENDCHAR
STARTCHAR S
ENCODING 83
SWIDTH 480 0
DWIDTH 8 0
BBX 9 10 0 0
BITMAP
0000012620
0000500240
0000820000
00003A0000
0000096000
000000C100
0200006400
1600004400
2A00005000
0686541000
ENDCHAR
STARTCHAR T
ENCODING 84
SWIDTH 577 0
DWIDTH 9 0
BBX 13 10 0 0
BITMAP
000007DFEDA730
00017301245450
00040000020000
00030000140000
00020000710000
00000000800000
00000005300000
05000006000000
28000050000000
08976400000000
ENDCHAR
STARTCHAR U
ENCODING 85
SWIDTH 752 0
DWIDTH 12 0
BBX 13 10 1 0
BITMAP
01578960000730
13000410001900
30004000008200
3002300002B000
30070000095000
001600004C1000
00540001790000
00730008270000
007813A1471100
002DE9101C5000
ENDCHAR
STARTCHAR V
ENCODING 86
SWIDTH 661 0
DWIDTH 11 0
BBX 11 10 1 0
BITMAP
027880003E70
0400260032D0
300007000080
300005200050
000004400020
000004400100
000006303000
000008141000
00000A310000
000025000000
ENDCHAR
STARTCHAR W
ENCODING 87
SWIDTH 822 0
DWIDTH 13 0
BBX 14 10 1 0
BITMAP
048AA000010069
22007400250018
30001700900007
20000701900005
00000610800040
00000510900120
00003400900200
00005100901000
00007000910000
00014000800000
ENDCHAR
STARTCHAR X
ENCODING 88
SWIDTH 813 0
DWIDTH 13 0
BBX 14 10 0 0
BITMAP
000002D20017B6
00000557025006
00001019140001
00000009200000
00000009100000
00000007400000
00000022900000
03000210A30000
170032003D4150
1CA7200005DD20
ENDCHAR
STARTCHAR Y
ENCODING 89
SWIDTH 662 0
DWIDTH 11 0
BBX 14 12 0 -2
BITMAP
00000386000009
00001136000074
000000620002B0
00000080000A40
00000170006B00
0032043004B200
15000741776000
700005EC470000
90000000620000
A1000006300000
4B301593000000
06EEC710000000
ENDCHAR
STARTCHAR Z
ENCODING 90
SWIDTH 625 0
DWIDTH 10 0
BBX 12 11 0 0
BITMAP
000000000011
000006EFFFA0
000044000200
000030002000
000010030000
000001300000
000013000000
000230000000
002300000400
01AA52026100
1405BEEA2000
ENDCHAR
STARTCHAR bracketleft
ENCODING 91
SWIDTH 318 0
DWIDTH 5 0
BBX 6 12 1 -2
BITMAP
001A43
004600
008200
009000
009000
036000
072000
090000
0A0000
380000
650000
A63000
ENDCHAR
STARTCHAR backslash
ENCODING 92
SWIDTH 212 0
DWIDTH 3 0
BBX 3 11 0 -1
BITMAP
5000
4100
1300
0500
0500
0500
0400
0230
0050
0050
0030
ENDCHAR
STARTCHAR bracketright
ENCODING 93
SWIDTH 339 0
DWIDTH 5 0
BBX 6 12 0 -2
BITMAP
00035B
000047
000064
000090
000090
000180
000540
000810
000900
001900
004600
349300
ENDCHAR
STARTCHAR asciicircum
ENCODING 94
SWIDTH 272 0
DWIDTH 4 0
BBX 4 3 0 3
BITMAP
0065
0338
1407
ENDCHAR
STARTCHAR underscore
ENCODING 95
SWIDTH 356 0
DWIDTH 6 0
BBX 6 2 -1 -1
BITMAP
000111
1CA877
ENDCHAR
STARTCHAR grave
ENCODING 96
SWIDTH 155 0
DWIDTH 2 0
BBX 2 2 0 5
BITMAP
10
37
ENDCHAR
STARTCHAR a
ENCODING 97
SWIDTH 294 0
DWIDTH 5 0
BBX 5 4 0 0
BITMAP
04DE50
291700
644800
5C2910
ENDCHAR
STARTCHAR b
ENCODING 98
SWIDTH 247 0
DWIDTH 4 0
BBX 9 12 0 0
BITMAP
0000037940
0000320010
0001200000
0004000000
0031000000
0050000000
0240000000
0700000000
0959000000
2807000000
5423000000
5830000000
ENDCHAR
STARTCHAR c
ENCODING 99
SWIDTH 203 0
DWIDTH 3 0
BBX 4 4 0 0
BITMAP
0142
2300
6210
5930
ENDCHAR
STARTCHAR d
ENCODING 100
SWIDTH 285 0
DWIDTH 5 0
BBX 11 12 0 0
BITMAP
000000006A20
000000040000
000000300000
000002100000
000004000000
000031000000
000060000000
000150000000
032910000000
250A00000000
624800000000
583A20000000
ENDCHAR
STARTCHAR e
ENCODING 101
SWIDTH 206 0
DWIDTH 3 0
BBX 4 4 0 0
BITMAP
0282
2640
7200
5840
ENDCHAR
STARTCHAR f
ENCODING 102
SWIDTH 156 0
DWIDTH 3 0
BBX 14 16 -5 -4
BITMAP
000000000027A3
00000000022002
00000000040000
00000000600000
00000001600000
00000006200000
00000008000000
00000026000000
000002DEA00000
00000081000000
00000080000000
00000530000000
00000700000000
00004200000000
10014000000000
65420000000000
ENDCHAR
STARTCHAR g
ENCODING 103
SWIDTH 210 0
DWIDTH 3 0
BBX 6 9 -2 -4
BITMAP
000210
000374
0052A0
004D90
000420
000240
510070
B512A0
3CFC30
ENDCHAR
STARTCHAR h
ENCODING 104
SWIDTH 292 0
DWIDTH 5 0
BBX 9 12 0 0
BITMAP
0000005790
0000040020
0000400000
0003100000
0005000000
0041000000
0060000000
0340000000
0728500000
0918100000
3708000000
610A200000
ENDCHAR
STARTCHAR i
ENCODING 105
SWIDTH 149 0
DWIDTH 2 0
BBX 4 7 0 0
BITMAP
0011
0050
0000
1710
0700
4400
6600
ENDCHAR
STARTCHAR j
ENCODING 106
SWIDTH 136 0
DWIDTH 2 0
BBX 9 11 -5 -4
BITMAP
0000000110
0000000400
0000000000
0000007000
0000017000
0000025000
0000050000
0000050000
0000310000
1001200000
6532000000
ENDCHAR
STARTCHAR k
ENCODING 107
SWIDTH 259 0
DWIDTH 4 0
BBX 9 12 0 0
BITMAP
0000015780
0000130020
0000300000
0004000000
0013000000
0050000000
0150000000
0610000000
0849000000
1A45000000
4670000000
7184000000
ENDCHAR
STARTCHAR l
ENCODING 108
SWIDTH 134 0
DWIDTH 2 0
BBX 8 12 0 0
BITMAP
00000497
00003301
00013000
00040000
00220000
00500000
02400000
06000000
07000000
35000000
63000000
65100000
ENDCHAR
STARTCHAR m
ENCODING 109
SWIDTH 413 0
DWIDTH 7 0
BBX 7 4 0 0
BITMAP
19292730
0A192710
27190800
61530A20
ENDCHAR
STARTCHAR n
ENCODING 110
SWIDTH 291 0
DWIDTH 5 0
BBX 5 4 0 0
BITMAP
1A2850
091810
270900
710A20
ENDCHAR
STARTCHAR o
ENCODING 111
SWIDTH 225 0
DWIDTH 4 0
BBX 4 4 0 0
BITMAP
0234
2135
7281
5E40
ENDCHAR
STARTCHAR p
ENCODING 112
SWIDTH 261 0
DWIDTH 4 0
BBX 5 9 -1 -4
BITMAP
007300
007460
005090
052580
0AE910
080000
450000
720000
840000
ENDCHAR
STARTCHAR q
ENCODING 113
SWIDTH 269 0
DWIDTH 4 0
BBX 5 8 0 -4
BITMAP
023740
240800
715500
769000
008000
035000
072000
094000
ENDCHAR
STARTCHAR r
ENCODING 114
SWIDTH 195 0
DWIDTH 3 0
BBX 4 4 0 0
BITMAP
298A
0A41
0900
5400
ENDCHAR
STARTCHAR s
ENCODING 115
SWIDTH 188 0
DWIDTH 3 0
BBX 3 4 0 0
BITMAP
0750
0910
1360
7530
ENDCHAR
STARTCHAR t
ENCODING 116
SWIDTH 171 0
DWIDTH 3 0
BBX 4 6 0 0
BITMAP
0070
0350
1BD3
0B00
3600
3820
ENDCHAR
STARTCHAR u
ENCODING 117
SWIDTH 299 0
DWIDTH 5 0
BBX 5 4 0 0
BITMAP
171350
170900
543800
671920
ENDCHAR
STARTCHAR v
ENCODING 118
SWIDTH 271 0
DWIDTH 4 0
BBX 5 4 0 0
BITMAP
1A0430
070910
079500
3C4000
ENDCHAR
STARTCHAR w
ENCODING 119
SWIDTH 369 0
DWIDTH 6 0
BBX 6 4 0 0
BITMAP
390427
083504
095412
073830
ENDCHAR
STARTCHAR x
ENCODING 120
SWIDTH 263 0
DWIDTH 4 0
BBX 6 4 -1 0
BITMAP
0192D4
006913
015500
182840
ENDCHAR
STARTCHAR y
ENCODING 121
SWIDTH 280 0
DWIDTH 4 0
BBX 8 8 -3 -4
BITMAP
00007135
00017091
00054390
00056450
00000700
30001600
70005000
56431000
ENDCHAR
STARTCHAR z
ENCODING 122
SWIDTH 238 0
DWIDTH 4 0
BBX 4 4 0 0
BITMAP
1687
0140
1401
8872
ENDCHAR
STARTCHAR braceleft
ENCODING 123
SWIDTH 291 0
DWIDTH 5 0
BBX 5 12 1 -2
BITMAP
000630
007200
009000
009000
016000
270000
0A0000
090000
360000
820000
810000
151000
ENDCHAR
STARTCHAR bar
ENCODING 124
SWIDTH 162 0
DWIDTH 3 0
BBX 1 14 1 -4
BITMAP
50
50
50
50
50
50
50
50
50
50
50
50
50
50
ENDCHAR
STARTCHAR braceright
ENCODING 125
SWIDTH 285 0
DWIDTH 5 0
BBX 5 12 0 -2
BITMAP
000560
000090
000180
000630
000900
000830
001610
006200
009000
009000
036000
330000
ENDCHAR
STARTCHAR asciitilde
ENCODING 126
SWIDTH 383 0
DWIDTH 6 0
BBX 6 2 0 2
BITMAP
06E614
133CC1
ENDCHAR
STARTCHAR space.dup1
ENCODING 160
SWIDTH 150 0
DWIDTH 2 0
BBX 1 1 0 0
BITMAP
00
ENDCHAR
STARTCHAR exclamdown
ENCODING 161
SWIDTH 189 0
DWIDTH 3 0
BBX 5 9 -2 -5
BITMAP
000090
000000
000500
001500
006100
007000
064000
0B0000
130000
ENDCHAR
STARTCHAR cent
ENCODING 162
SWIDTH 194 0
DWIDTH 3 0
BBX 4 7 0 -1
BITMAP
0112
04D4
3670
9B10
8A00
4410
4000
ENDCHAR
STARTCHAR sterling
ENCODING 163
SWIDTH 344 0
DWIDTH 6 0
BBX 6 5 0 0
BITMAP
000493
003301
029310
016000
79A840
ENDCHAR
STARTCHAR currency
ENCODING 164
SWIDTH 344 0
DWIDTH 6 0
BBX 6 5 0 0
BITMAP
040012
030150
040050
061320
310220
ENDCHAR
STARTCHAR yen
ENCODING 165
SWIDTH 309 0
DWIDTH 5 0
BBX 6 5 0 0
BITMAP
181251
026800
2DB100
044000
5EF500
ENDCHAR
STARTCHAR brokenbar
ENCODING 166
SWIDTH 162 0
DWIDTH 3 0
BBX 1 14 1 -4
BITMAP
50
50
50
50
50
10
00
00
20
50
50
50
50
50
ENDCHAR
STARTCHAR section
ENCODING 167
SWIDTH 395 0
DWIDTH 6 0
BBX 9 13 -1 -4
BITMAP
0000003300
0000373660
0003610050
0007610000
0009530000
0009370000
0007390000
00036A0000
0000990000
0100881000
6000870000
A100730000
3A77200000
ENDCHAR
STARTCHAR dieresis
ENCODING 168
SWIDTH 174 0
DWIDTH 3 0
BBX 3 1 0 5
BITMAP
6340
ENDCHAR
STARTCHAR copyright
ENCODING 169
SWIDTH 331 0
DWIDTH 5 0
BBX 4 4 1 2
BITMAP
0221
3454
5614
5111
ENDCHAR
STARTCHAR ordfeminine
ENCODING 170
SWIDTH 226 0
DWIDTH 4 0
BBX 3 2 0 3
BITMAP
0470
1460
ENDCHAR
STARTCHAR guillemotleft
ENCODING 171
SWIDTH 289 0
DWIDTH 5 0
BBX 5 4 0 0
BITMAP
005670
158500
66F300
084F00
ENDCHAR
STARTCHAR logicalnot
ENCODING 172
SWIDTH 265 0
DWIDTH 4 0
BBX 4 4 0 1
BITMAP
0011
AEDC
0018
0022
ENDCHAR
STARTCHAR registered
ENCODING 174
SWIDTH 331 0
DWIDTH 5 0
BBX 4 4 1 2
BITMAP
2665
5655
5723
5341
ENDCHAR
STARTCHAR degree
ENCODING 176
SWIDTH 104 0
DWIDTH 2 0
BBX 2 3 1 4
BITMAP
69
45
86
ENDCHAR
STARTCHAR plusminus
ENCODING 177
SWIDTH 301 0
DWIDTH 5 0
BBX 5 5 0 0
BITMAP
001200
006100
1EFF40
006000
466300
ENDCHAR
STARTCHAR twosuperior
ENCODING 178
SWIDTH 215 0
DWIDTH 3 0
BBX 3 3 0 2
BITMAP
0280
0050
1850
ENDCHAR
STARTCHAR threesuperior
ENCODING 179
SWIDTH 190 0
DWIDTH 3 0
BBX 3 3 0 2
BITMAP
0260
0260
1440
ENDCHAR
STARTCHAR acute
ENCODING 180
SWIDTH 157 0
DWIDTH 3 0
BBX 3 2 0 5
BITMAP
0A10
3300
ENDCHAR
STARTCHAR mu
ENCODING 181
SWIDTH 324 0
DWIDTH 5 0
BBX 6 7 -1 -3
BITMAP
002508
007075
029591
07B565
080000
280000
110000
ENDCHAR
STARTCHAR paragraph
ENCODING 182
SWIDTH 392 0
DWIDTH 6 0
BBX 9 9 -2 -4
BITMAP
0000056930
0000BF4900
0005FF2700
0007FB6300
0002D79000
0000447000
0200671000
6202650000
3957300000
ENDCHAR
STARTCHAR periodcentered
ENCODING 183
SWIDTH 112 0
DWIDTH 2 0
BBX 2 1 0 2
BITMAP
53
ENDCHAR
STARTCHAR cedilla
ENCODING 184
SWIDTH 115 0
DWIDTH 2 0
BBX 2 2 0 -2
BITMAP
14
32
ENDCHAR
STARTCHAR onesuperior
ENCODING 185
SWIDTH 174 0
DWIDTH 3 0
BBX 3 3 0 2
BITMAP
0D30
0400
1400
ENDCHAR
STARTCHAR ordmasculine
ENCODING 186
SWIDTH 178 0
DWIDTH 3 0
BBX 3 2 0 3
BITMAP
0550
2310
ENDCHAR
STARTCHAR guillemotright
ENCODING 187
SWIDTH 276 0
DWIDTH 4 0
BBX 5 4 -1 0
BITMAP
037810
0085A0
015440
143200
ENDCHAR
STARTCHAR onequarter
ENCODING 188
SWIDTH 435 0
DWIDTH 7 0
BBX 7 7 0 -1
BITMAP
00000210
01801500
01515230
06155610
0352CB00
04203300
13000000
ENDCHAR
STARTCHAR onehalf
ENCODING 189
SWIDTH 434 0
DWIDTH 7 0
BBX 7 7 0 -1
BITMAP
00000210
01811500
01615410
06163270
03510420
04228510
13000000
ENDCHAR
STARTCHAR threequarters
ENCODING 190
SWIDTH 476 0
DWIDTH 8 0
BBX 8 7 0 -1
BITMAP
00000030
02610420
01813311
10534280
03254560
00600700
03100000
ENDCHAR
STARTCHAR questiondown
ENCODING 191
SWIDTH 285 0
DWIDTH 5 0
BBX 6 9 -1 -5
BITMAP
000045
000000
000370
000420
025100
350000
800000
A10500
396000
ENDCHAR
STARTCHAR Agrave
ENCODING 192
SWIDTH 996 0
DWIDTH 16 0
BBX 16 13 0 0
BITMAP
0000000000000010
0000000000000074
0000000000000000
0000000024577873
000000012000001B
00000002000011A2
0000000000012190
0000000000230640
00000000BFFFEE00
0200000004200800
1400000051000900
2900004500000B02
08C98720000008A2
ENDCHAR
STARTCHAR Aacute
ENCODING 193
SWIDTH 996 0
DWIDTH 16 0
BBX 17 13 0 0
BITMAP
000000000000000110
000000000000002720
000000000000000000
000000002457787300
000000012000001B00
00000002000011A200
000000000001219000
000000000023064000
00000000BFFFEE0000
020000000420080000
140000005100090000
2900004500000B0200
08C98720000008A200
ENDCHAR
STARTCHAR Acircumflex
ENCODING 194
SWIDTH 996 0
DWIDTH 16 0
BBX 17 13 0 0
BITMAP
000000000000000100
000000000000002360
000000000000000000
000000002457787300
000000012000001B00
00000002000011A200
000000000001219000
000000000023064000
00000000BFFFEE0000
020000000420080000
140000005100090000
2900004500000B0200
08C98720000008A200
ENDCHAR
STARTCHAR Atilde
ENCODING 195
SWIDTH 996 0
DWIDTH 16 0
BBX 18 12 0 0
BITMAP
000000000000006722
000000000000000150
000000002457787300
000000012000001B00
00000002000011A200
000000000001219000
000000000023064000
00000000BFFFEE0000
020000000420080000
140000005100090000
2900004500000B0200
08C98720000008A200
ENDCHAR
STARTCHAR Adieresis
ENCODING 196
SWIDTH 996 0
DWIDTH 16 0
BBX 17 12 0 0
BITMAP
000000000000001450
000000000000000000
000000002457787300
000000012000001B00
00000002000011A200
000000000001219000
000000000023064000
00000000BFFFEE0000
020000000420080000
140000005100090000
2900004500000B0200
08C98720000008A200
ENDCHAR
STARTCHAR Aring
ENCODING 197
SWIDTH 996 0
DWIDTH 16 0
BBX 17 13 0 0
BITMAP
000000000000000720
000000000000000450
000000000000000300
000000002457787300
000000012000001B00
00000002000011A200
000000000001219000
000000000023064000
00000000BFFFEE0000
020000000420080000
140000005100090000
2900004500000B0200
08C98720000008A200
ENDCHAR
STARTCHAR AE
ENCODING 198
SWIDTH 1271 0
DWIDTH 20 0
BBX 22 10 0 0
BITMAP
0000000024577873043591
000000012000001B700040
0000000200001184920000
00000000000220B03D2000
00000000002302A3100000
000000008FFFFF80000000
0300000005200640000000
1400000061000730000300
2900004500000480000600
07C9872000000077446200
ENDCHAR
STARTCHAR Ccedilla
ENCODING 199
SWIDTH 557 0
DWIDTH 9 0
BBX 9 11 1 -1
BITMAP
0003335790
0150000050
0700000000
6400000000
B000000000
C000000000
C200000200
5900001500
068203A100
0003620000
0002200000
ENDCHAR
STARTCHAR Egrave
ENCODING 200
SWIDTH 463 0
DWIDTH 7 0
BBX 9 12 0 0
BITMAP
0000037200
0000000000
0000335810
0007000200
000B610000
0004F50000
0152100000
0700000000
5500000000
7400002100
4900007000
0774463000
ENDCHAR
STARTCHAR Eacute
ENCODING 201
SWIDTH 463 0
DWIDTH 7 0
BBX 9 13 0 0
BITMAP
0000001100
0000027200
0000000000
0000335810
0007000200
000B610000
0004F50000
0152100000
0700000000
5500000000
7400002100
4900007000
0774463000
ENDCHAR
STARTCHAR Ecircumflex
ENCODING 202
SWIDTH 463 0
DWIDTH 7 0
BBX 9 13 0 0
BITMAP
0000001000
0000025300
0000000000
0000335810
0007000200
000B610000
0004F50000
0152100000
0700000000
5500000000
7400002100
4900007000
0774463000
ENDCHAR
STARTCHAR Edieresis
ENCODING 203
SWIDTH 463 0
DWIDTH 7 0
BBX 9 12 0 0
BITMAP
0000033400
0000000000
0000335810
0007000200
000B610000
0004F50000
0152100000
0700000000
5500000000
7400002100
4900007000
0774463000
ENDCHAR
STARTCHAR Igrave
ENCODING 204
SWIDTH 514 0
DWIDTH 8 0
BBX 12 13 0 0
BITMAP
000000002000
000000018400
000000000100
000000003691
000000231800
000001207200
00000400A000
000003028000
000003062000
130000170000
800000930000
A5114A300000
2CED81000000
ENDCHAR
STARTCHAR Iacute
ENCODING 205
SWIDTH 514 0
DWIDTH 8 0
BBX 12 12 0 0
BITMAP
000000003810
000000001000
000000003691
000000231800
000001207200
00000400A000
000003028000
000003062000
130000170000
800000930000
A5114A300000
2CED81000000
ENDCHAR
STARTCHAR Icircumflex
ENCODING 206
SWIDTH 514 0
DWIDTH 8 0
BBX 12 13 0 0
BITMAP
000000000100
000000002440
000000000000
000000003691
000000231800
000001207200
00000400A000
000003028000
000003062000
130000170000
800000930000
A5114A300000
2CED81000000
ENDCHAR
STARTCHAR Idieresis
ENCODING 207
SWIDTH 514 0
DWIDTH 8 0
BBX 12 12 0 0
BITMAP
000000004340
000000000000
000000003691
000000231800
000001207200
00000400A000
000003028000
000003062000
130000170000
800000930000
A5114A300000
2CED81000000
ENDCHAR
STARTCHAR Eth
ENCODING 208
SWIDTH 800 0
DWIDTH 13 0
BBX 13 12 0 -1
BITMAP
00000000001000
00024578762000
00130001444000
00200007005400
00000018000900
00000063000460
00007FFEF10190
00000091000090
00000640000060
02455900000010
55334121025200
00000002320000
ENDCHAR
STARTCHAR Ntilde
ENCODING 209
SWIDTH 796 0
DWIDTH 13 0
BBX 21 12 -3 0
BITMAP
0000000000000983100000
00000000000019A4000000
0000036895300000019B20
0000020006800000070020
0000000004360000410000
0000000004043001400000
0000000004008004000000
0200000021003503000000
1400000040000912000000
4400000410000650000000
1B100052000002A0000000
04BA971000000060000000
ENDCHAR
STARTCHAR Ograve
ENCODING 210
SWIDTH 608 0
DWIDTH 10 0
BBX 10 12 1 0
BITMAP
0000174000
0000000000
0004AEEA10
00772028C0
06300000A4
2600000056
7100000036
9000000062
B000000080
A500000720
3E62039400
04CFD92000
ENDCHAR
STARTCHAR Oacute
ENCODING 211
SWIDTH 608 0
DWIDTH 10 0
BBX 10 13 1 0
BITMAP
0000002000
0000046000
0000000000
0004AEEA10
00772028C0
06300000A4
2600000056
7100000036
9000000062
B000000080
A500000720
3E62039400
04CFD92000
ENDCHAR
STARTCHAR Ocircumflex
ENCODING 212
SWIDTH 608 0
DWIDTH 10 0
BBX 10 13 1 0
BITMAP
0000001000
0000047300
0000000000
0004AEEA10
00772028C0
06300000A4
2600000056
7100000036
9000000062
B000000080
A500000720
3E62039400
04CFD92000
ENDCHAR
STARTCHAR Otilde
ENCODING 213
SWIDTH 608 0
DWIDTH 10 0
BBX 10 12 1 0
BITMAP
00001D8400
0000212000
0004AEEA10
00772028C0
06300000A4
2600000056
7100000036
9000000062
B000000080
A500000720
3E62039400
04CFD92000
ENDCHAR
STARTCHAR Odieresis
ENCODING 214
SWIDTH 608 0
DWIDTH 10 0
BBX 10 12 1 0
BITMAP
0000064100
0000000000
0004AEEA10
00772028C0
06300000A4
2600000056
7100000036
9000000062
B000000080
A500000720
3E62039400
04CFD92000
ENDCHAR
STARTCHAR multiply
ENCODING 215
SWIDTH 301 0
DWIDTH 5 0
BBX 4 4 1 0
BITMAP
2692
0B40
1610
6040
ENDCHAR
STARTCHAR Oslash
ENCODING 216
SWIDTH 605 0
DWIDTH 10 0
BBX 10 12 1 -1
BITMAP
0000000120
0004BEF950
0088203191
0740027055
2800190046
8200820054
A005500081
A028000180
A091000910
444214A300
26CFD81000
1000000000
ENDCHAR
STARTCHAR Ugrave
ENCODING 217
SWIDTH 717 0
DWIDTH 11 0
BBX 13 12 0 0
BITMAP
00000000540000
00000000031000
00468991000190
04100130000820
12001300001900
30005000009300
3003300003C000
00070000087000
00090000682000
000A00054A0000
001D21750A0200
0009EC40099100
ENDCHAR
STARTCHAR Uacute
ENCODING 218
SWIDTH 717 0
DWIDTH 11 0
BBX 13 12 0 0
BITMAP
00000000027000
00000000030000
00468991000190
04100130000820
12001300001900
30005000009300
3003300003C000
00070000087000
00090000682000
000A00054A0000
001D21750A0200
0009EC40099100
ENDCHAR
STARTCHAR Ucircumflex
ENCODING 219
SWIDTH 718 0
DWIDTH 11 0
BBX 13 12 0 0
BITMAP
00000000266000
00000000000000
00468991000190
04100130000820
12001300002900
30005000009300
3003300003C000
00070000097000
00090000682000
000A00054A0000
001D21760A0200
0009EC40099100
ENDCHAR
STARTCHAR Udieresis
ENCODING 220
SWIDTH 718 0
DWIDTH 11 0
BBX 13 12 0 0
BITMAP
00000000335000
00000000000000
00468991000190
04100130000820
12001300001900
30005000009300
3003300003C000
00070000087000
00090000682000
000A00054A0000
001D21750A0200
0009EC40099100
ENDCHAR
STARTCHAR Yacute
ENCODING 221
SWIDTH 662 0
DWIDTH 11 0
BBX 14 14 0 -2
BITMAP
00000000004600
00000000026000
00000386000009
00001136000074
000000620002B0
00000080000A40
00000170006B00
0032043004B200
15000741776000
700005EC470000
90000000620000
A1000006300000
4B301593000000
06EEC710000000
ENDCHAR
STARTCHAR Thorn
ENCODING 222
SWIDTH 745 0
DWIDTH 12 0
BBX 13 11 0 0
BITMAP
00000000000200
00000000006100
00000000062000
000000034FD600
00000030584D40
00000010930580
00000000D00350
04000007800000
23000007798100
17000050100000
05975400000000
ENDCHAR
STARTCHAR germandbls
ENCODING 223
SWIDTH 304 0
DWIDTH 5 0
BBX 15 16 -6 -4
BITMAP
0000000000055010
0000000000520270
0000000002100660
0000000001004C10
000000001007C200
0000000031BA1000
000000022B600000
0000000538000000
0000000615000000
0000001503000000
0000005106400000
00000051DD200000
0000012000000000
0000030000000000
1000110000000000
1864100000000000
ENDCHAR
STARTCHAR agrave
ENCODING 224
SWIDTH 294 0
DWIDTH 5 0
BBX 5 7 0 0
BITMAP
001100
001810
000000
04DE50
291700
644800
5C2910
ENDCHAR
STARTCHAR aacute
ENCODING 225
SWIDTH 294 0
DWIDTH 5 0
BBX 5 7 0 0
BITMAP
000570
000600
000000
04DE50
291700
644800
5C2910
ENDCHAR
STARTCHAR acircumflex
ENCODING 226
SWIDTH 294 0
DWIDTH 5 0
BBX 5 7 0 0
BITMAP
000500
003340
000000
04DE50
291700
644800
5C2910
ENDCHAR
STARTCHAR atilde
ENCODING 227
SWIDTH 294 0
DWIDTH 5 0
BBX 5 7 0 0
BITMAP
009500
005D70
000000
04DE50
291700
644800
5C2910
ENDCHAR
STARTCHAR adieresis
ENCODING 228
SWIDTH 284 0
DWIDTH 5 0
BBX 5 6 0 0
BITMAP
006340
000000
04DE50
291700
644800
5C2910
ENDCHAR
STARTCHAR aring
ENCODING 229
SWIDTH 294 0
DWIDTH 5 0
BBX 5 7 0 0
BITMAP
000C00
003700
002A00
04DE50
291700
644800
5C2910
ENDCHAR
STARTCHAR ae
ENCODING 230
SWIDTH 363 0
DWIDTH 6 0
BBX 6 5 0 0
BITMAP
000040
023A59
240A43
614800
581B52
ENDCHAR
STARTCHAR ccedilla
ENCODING 231
SWIDTH 203 0
DWIDTH 3 0
BBX 4 6 0 -2
BITMAP
0152
2300
6110
5930
0500
1400
ENDCHAR
STARTCHAR egrave
ENCODING 232
SWIDTH 206 0
DWIDTH 3 0
BBX 4 7 0 0
BITMAP
0020
0073
0000
0282
2640
7200
5840
ENDCHAR
STARTCHAR eacute
ENCODING 233
SWIDTH 206 0
DWIDTH 3 0
BBX 4 7 0 0
BITMAP
001A
0042
0000
0282
2640
7200
5840
ENDCHAR
STARTCHAR ecircumflex
ENCODING 234
SWIDTH 206 0
DWIDTH 3 0
BBX 4 7 0 0
BITMAP
0050
0234
0000
0282
2640
7200
5840
ENDCHAR
STARTCHAR edieresis
ENCODING 235
SWIDTH 206 0
DWIDTH 3 0
BBX 4 6 0 0
BITMAP
0257
0000
0282
2640
7200
5840
ENDCHAR
STARTCHAR igrave
ENCODING 236
SWIDTH 149 0
DWIDTH 2 0
BBX 3 7 0 0
BITMAP
0200
0460
0000
1710
0700
4400
6600
ENDCHAR
STARTCHAR iacute
ENCODING 237
SWIDTH 149 0
DWIDTH 2 0
BBX 4 7 0 0
BITMAP
0066
0060
0000
1710
0700
4400
6600
ENDCHAR
STARTCHAR icircumflex
ENCODING 238
SWIDTH 149 0
DWIDTH 2 0
BBX 4 7 0 0
BITMAP
0140
0342
0000
1710
0700
4400
6600
ENDCHAR
STARTCHAR idieresis
ENCODING 239
SWIDTH 149 0
DWIDTH 2 0
BBX 4 6 0 0
BITMAP
0535
0000
1710
0700
4400
6600
ENDCHAR
STARTCHAR eth
ENCODING 240
SWIDTH 234 0
DWIDTH 4 0
BBX 4 11 0 0
BITMAP
0200
4300
2800
0661
1390
0053
0016
0217
2305
6231
4A40
ENDCHAR
STARTCHAR ntilde
ENCODING 241
SWIDTH 291 0
DWIDTH 5 0
BBX 5 7 0 0
BITMAP
009500
005D70
000000
1A2850
091810
270900
710A20
ENDCHAR
STARTCHAR ograve
ENCODING 242
SWIDTH 225 0
DWIDTH 4 0
BBX 4 7 0 0
BITMAP
0020
0055
0000
0234
2135
7281
5E40
ENDCHAR
STARTCHAR oacute
ENCODING 243
SWIDTH 225 0
DWIDTH 4 0
BBX 4 7 0 0
BITMAP
000B
0042
0000
0234
2135
7281
5E40
ENDCHAR
STARTCHAR ocircumflex
ENCODING 244
SWIDTH 225 0
DWIDTH 4 0
BBX 5 7 0 0
BITMAP
002300
013510
000000
023400
213500
728100
5E4000
ENDCHAR
STARTCHAR otilde
ENCODING 245
SWIDTH 225 0
DWIDTH 4 0
BBX 5 7 0 0
BITMAP
01B100
046D20
000000
023400
213500
728100
5E4000
ENDCHAR
STARTCHAR odieresis
ENCODING 246
SWIDTH 225 0
DWIDTH 4 0
BBX 4 6 0 0
BITMAP
0257
0000
0234
2135
7281
5E40
ENDCHAR
STARTCHAR divide
ENCODING 247
SWIDTH 301 0
DWIDTH 5 0
BBX 4 5 1 0
BITMAP
0210
0000
5551
0000
0400
ENDCHAR
STARTCHAR oslash
ENCODING 248
SWIDTH 225 0
DWIDTH 4 0
BBX 4 6 0 -1
BITMAP
0002
03A5
2465
7541
6930
1000
ENDCHAR
STARTCHAR ugrave
ENCODING 249
SWIDTH 299 0
DWIDTH 5 0
BBX 5 7 0 0
BITMAP
000100
001810
000000
171350
170900
543800
671920
ENDCHAR
STARTCHAR uacute
ENCODING 250
SWIDTH 299 0
DWIDTH 5 0
BBX 5 7 0 0
BITMAP
000390
000510
000000
171350
170900
543800
671920
ENDCHAR
STARTCHAR ucircumflex
ENCODING 251
SWIDTH 299 0
DWIDTH 5 0
BBX 5 7 0 0
BITMAP
000500
002340
000000
171350
170900
543800
671920
ENDCHAR
STARTCHAR udieresis
ENCODING 252
SWIDTH 299 0
DWIDTH 5 0
BBX 5 6 0 0
BITMAP
005350
000000
171350
170900
543800
671920
ENDCHAR
STARTCHAR yacute
ENCODING 253
SWIDTH 280 0
DWIDTH 4 0
BBX 8 11 -3 -4
BITMAP
0000001A
00000051
00000000
00007135
00017091
00054390
00056450
00000700
30001600
70005000
56431000
ENDCHAR
STARTCHAR thorn
ENCODING 254
SWIDTH 261 0
DWIDTH 4 0
BBX 5 12 -1 -4
BITMAP
000260
000340
000700
001500
004460
002090
022580
08E910
060000
240000
620000
740000
ENDCHAR
STARTCHAR ydieresis
ENCODING 255
SWIDTH 280 0
DWIDTH 4 0
BBX 8 10 -3 -4
BITMAP
00000635
00000000
00007135
00017091
00054390
00056450
00000700
30001600
70005000
56431000
ENDCHAR
STARTCHAR dotlessi
ENCODING 305
SWIDTH 149 0
DWIDTH 2 0
BBX 3 4 0 0
BITMAP
1710
0700
4400
6600
ENDCHAR
STARTCHAR Lslash
ENCODING 321
SWIDTH 657 0
DWIDTH 11 0
BBX 12 10 0 0
BITMAP
000000003CE4
000000036127
000000060003
000000633000
000024D60000
000003800000
000008200000
046539000010
6216F7311510
4ED927DFC300
ENDCHAR
STARTCHAR lslash
ENCODING 322
SWIDTH 134 0
DWIDTH 2 0
BBX 8 12 0 0
BITMAP
00000497
00003301
00013000
00040000
00241000
03710000
02400000
06000000
07000000
25000000
63000000
65100000
ENDCHAR
STARTCHAR OE
ENCODING 338
SWIDTH 827 0
DWIDTH 13 0
BBX 13 10 1 0
BITMAP
0004BEEA223690
00872029B00030
06200000D50000
250000006F3000
70000024200000
90000270000000
B0000930000000
A5000A20000300
4E620760001600
04DFD886446200
ENDCHAR
STARTCHAR oe
ENCODING 339
SWIDTH 345 0
DWIDTH 6 0
BBX 6 4 0 0
BITMAP
039575
222941
705500
585A41
ENDCHAR
STARTCHAR Scaron
ENCODING 352
SWIDTH 480 0
DWIDTH 8 0
BBX 9 13 0 0
BITMAP
0000011010
0000008510
0000000000
0000012620
0000500240
0000820000
00003A0000
0000096000
000000C100
0200006400
1600004400
2A00005000
0686541000
ENDCHAR
STARTCHAR scaron
ENCODING 353
SWIDTH 188 0
DWIDTH 3 0
BBX 4 7 0 0
BITMAP
0302
0061
0000
0750
0910
1360
7530
ENDCHAR
STARTCHAR Ydieresis
ENCODING 376
SWIDTH 662 0
DWIDTH 11 0
BBX 14 14 0 -2
BITMAP
00000000064100
00000000000000
00000386000009
00001136000074
000000620002B0
00000080000A40
00000170006B00
0032043004B200
15000741776000
700005EC470000
90000000620000
A1000006300000
4B301593000000
06EEC710000000
ENDCHAR
STARTCHAR Zcaron
ENCODING 381
SWIDTH 625 0
DWIDTH 10 0
BBX 12 13 0 0
BITMAP
000000010100
000000048300
000000000011
000006EFFFA0
000044000200
000030002000
000010030000
000001300000
000013000000
000230000000
002300000400
01AA52026100
1405BEEA2000
ENDCHAR
STARTCHAR zcaron
ENCODING 382
SWIDTH 248 0
DWIDTH 4 0
BBX 5 7 -1 0
BITMAP
000330
000160
000000
016860
001400
014010
188710
ENDCHAR
STARTCHAR florin
ENCODING 402
SWIDTH 214 0
DWIDTH 3 0
BBX 6 6 -2 -1
BITMAP
0000AE
000730
005FC3
001700
004200
243000
ENDCHAR
STARTCHAR circumflex
ENCODING 710
SWIDTH 196 0
DWIDTH 3 0
BBX 3 2 0 5
BITMAP
0500
2340
ENDCHAR
STARTCHAR caron
ENCODING 711
SWIDTH 196 0
DWIDTH 3 0
BBX 3 2 0 5
BITMAP
3020
0600
ENDCHAR
STARTCHAR breve
ENCODING 728
SWIDTH 198 0
DWIDTH 3 0
BBX 3 2 0 5
BITMAP
3020
1D30
ENDCHAR
STARTCHAR dotaccent
ENCODING 729
SWIDTH 89 0
DWIDTH 1 0
BBX 1 1 0 5
BITMAP
70
ENDCHAR
STARTCHAR ring
ENCODING 730
SWIDTH 117 0
DWIDTH 2 0
BBX 2 3 0 4
BITMAP
66
54
83
ENDCHAR
STARTCHAR ogonek
ENCODING 731
SWIDTH 124 0
DWIDTH 2 0
BBX 2 2 0 -2
BITMAP
31
62
ENDCHAR
STARTCHAR tilde
ENCODING 732
SWIDTH 222 0
DWIDTH 4 0
BBX 4 2 0 5
BITMAP
3A00
48C1
ENDCHAR
STARTCHAR hungarumlaut
ENCODING 733
SWIDTH 253 0
DWIDTH 4 0
BBX 4 2 0 5
BITMAP
0B58
5470
ENDCHAR
STARTCHAR mu.dup2
ENCODING 956
SWIDTH 324 0
DWIDTH 5 0
BBX 6 7 -1 -3
BITMAP
002508
007075
029591
07B565
080000
280000
110000
ENDCHAR
STARTCHAR endash
ENCODING 8211
SWIDTH 500 0
DWIDTH 8 0
BBX 8 1 0 2
BITMAP
9FFFFFF8
ENDCHAR
STARTCHAR emdash
ENCODING 8212
SWIDTH 1000 0
DWIDTH 16 0
BBX 16 1 0 2
BITMAP
9FFFFFFFFFFFFFF8
ENDCHAR
STARTCHAR quoteleft
ENCODING 8216
SWIDTH 87 0
DWIDTH 1 0
BBX 3 3 0 4
BITMAP
0110
0600
1600
ENDCHAR
STARTCHAR quoteright
ENCODING 8217
SWIDTH 87 0
DWIDTH 1 0
BBX 3 3 0 4
BITMAP
0310
0610
1200
ENDCHAR
STARTCHAR quotesinglbase
ENCODING 8218
SWIDTH 112 0
DWIDTH 2 0
BBX 2 2 0 -1
BITMAP
34
10
ENDCHAR
STARTCHAR quotedblleft
ENCODING 8220
SWIDTH 167 0
DWIDTH 3 0
BBX 4 3 0 4
BITMAP
0322
0670
1780
ENDCHAR
STARTCHAR quotedblright
ENCODING 8221
SWIDTH 167 0
DWIDTH 3 0
BBX 4 3 0 4
BITMAP
0646
0634
1340
ENDCHAR
STARTCHAR quotedblbase
ENCODING 8222
SWIDTH 192 0
DWIDTH 3 0
BBX 3 2 0 -1
BITMAP
3580
4320
ENDCHAR
STARTCHAR dagger
ENCODING 8224
SWIDTH 185 0
DWIDTH 3 0
BBX 4 11 0 -2
BITMAP
0041
0060
0060
6EDA
0500
0500
0400
2300
4000
3000
1000
ENDCHAR
STARTCHAR daggerdbl
ENCODING 8225
SWIDTH 185 0
DWIDTH 3 0
BBX 5 11 -1 -2
BITMAP
000410
000600
000600
07EEB0
005100
005000
005000
1BEB00
031000
040000
020000
ENDCHAR
STARTCHAR bullet
ENCODING 8226
SWIDTH 207 0
DWIDTH 3 0
BBX 3 2 0 1
BITMAP
0C90
1E70
ENDCHAR
STARTCHAR ellipsis
ENCODING 8230
SWIDTH 376 0
DWIDTH 6 0
BBX 6 1 0 0
BITMAP
534526
ENDCHAR
STARTCHAR perthousand
ENCODING 8240
SWIDTH 571 0
DWIDTH 9 0
BBX 9 7 0 -1
BITMAP
0000050000
1590600000
5054200000
7645591580
0056055050
0517627620
3300000000
ENDCHAR
STARTCHAR guilsinglleft
ENCODING 8249
SWIDTH 189 0
DWIDTH 3 0
BBX 4 4 0 0
BITMAP
0051
1500
6500
0810
ENDCHAR
STARTCHAR guilsinglright
ENCODING 8250
SWIDTH 176 0
DWIDTH 3 0
BBX 4 4 -1 0
BITMAP
0370
0084
0150
1400
ENDCHAR
STARTCHAR fraction
ENCODING 8260
SWIDTH 220 0
DWIDTH 4 0
BBX 6 7 -1 -1
BITMAP
000003
000024
000150
000600
006000
051000
120000
ENDCHAR
STARTCHAR Euro
ENCODING 8364
SWIDTH 360 0
DWIDTH 6 0
BBX 5 6 0 0
BITMAP
009E30
013000
6FF700
281000
570000
071500
ENDCHAR
STARTCHAR trademark
ENCODING 8482
SWIDTH 389 0
DWIDTH 6 0
BBX 5 3 1 2
BITMAP
542550
614650
211020
ENDCHAR
STARTCHAR minus
ENCODING 8722
SWIDTH 301 0
DWIDTH 5 0
BBX 5 1 0 2
BITMAP
1EFF40
ENDCHAR
STARTCHAR fi
ENCODING 64257
SWIDTH 297 0
DWIDTH 5 0
BBX 14 16 -5 -4
BITMAP
000000000027A3
00000000022002
00000000040000
00000000500000
00000001601000
00000006223000
00000008040000
00000026000000
000004EFE70000
00000191300000
00000080700000
00000531A20000
00000700000000
00004200000000
10014000000000
65420000000000
ENDCHAR
STARTCHAR fl
ENCODING 64258
SWIDTH 290 0
DWIDTH 5 0
BBX 16 16 -5 -4
BITMAP
00000000002867B1
0000000002416000
0000000015020000
0000000060120000
0000000160300000
0000000622200000
0000000804000000
0000003614000000
000003EFE1000000
0000019140000000
0000008071000000
00000530C3000000
0000070000000000
0000420000000000
1001400000000000
6542000000000000
ENDCHAR
STARTCHAR .notdef
ENCODING -1
SWIDTH 150 0
DWIDTH 2 0
BBX 1 1 0 0
BITMAP
00
ENDCHAR
STARTCHAR .null
ENCODING -1
SWIDTH 0 0
DWIDTH 0 0
BBX 1 1 0 0
BITMAP
00
ENDCHAR
STARTCHAR nonmarkingreturn
ENCODING -1
SWIDTH 150 0
DWIDTH 2 0
BBX 1 1 0 0
BITMAP
00
ENDCHAR
ENDFONT
